<svg xmlns="http://www.w3.org/2000/svg" fill="none" viewBox="0 0 48 48" height="48" width="48">
<path fill="black" d="M20.2995 17.6044L19.4159 18.8165L19.4159 18.8165L20.2995 17.6044ZM24 6.21231L22.9849 7.31666C23.5588 7.84419 24.4412 7.84419 25.0151 7.31666L24 6.21231ZM27.7005 17.6044L28.5841 18.8165L28.5841 18.8165L27.7005 17.6044ZM24 19.352L24 20.852L24 20.852L24 19.352ZM20.2995 17.6044L21.1831 16.3922C19.8026 15.386 18.3302 14.1622 17.2177 12.8725C16.069 11.5411 15.5 10.3647 15.5 9.42953H14H12.5C12.5 11.4646 13.6569 13.3377 14.9461 14.8321C16.2714 16.3684 17.9487 17.747 19.4159 18.8165L20.2995 17.6044ZM14 9.42953H15.5C15.5 7.31225 16.54 6.10461 17.791 5.68363C19.0951 5.24477 21.0397 5.52869 22.9849 7.31666L24 6.21231L25.0151 5.10796C22.4604 2.75975 19.4051 1.97512 16.8341 2.84032C14.21 3.7234 12.5 6.19247 12.5 9.42953H14ZM27.7005 17.6044L28.5841 18.8165C30.0513 17.747 31.7286 16.3684 33.0539 14.8322C34.3431 13.3377 35.5 11.4646 35.5 9.4295H34H32.5C32.5 10.3647 31.931 11.5411 30.7823 12.8726C29.6698 14.1623 28.1974 15.386 26.8169 16.3923L27.7005 17.6044ZM34 9.4295H35.5C35.5 6.19245 33.79 3.72339 31.1659 2.84032C28.5949 1.97512 25.5396 2.75975 22.9849 5.10796L24 6.21231L25.0151 7.31666C26.9603 5.52869 28.9049 5.24476 30.209 5.68363C31.46 6.10461 32.5 7.31224 32.5 9.4295H34ZM20.2995 17.6044L19.4159 18.8165C20.9261 19.9174 22.1236 20.852 24 20.852L24 19.352L24 17.852C23.27 17.852 22.8693 17.6215 21.1831 16.3922L20.2995 17.6044ZM27.7005 17.6044L26.8169 16.3923C25.1307 17.6215 24.73 17.852 24 17.852L24 19.352L24 20.852C25.8764 20.852 27.0739 19.9174 28.5841 18.8165L27.7005 17.6044Z"/>
<path stroke-linecap="round" stroke-width="3" stroke="black" d="M10 40.7768H14.5199C16.5416 40.7768 18.5851 40.9874 20.5527 41.3928C24.0331 42.1098 27.6977 42.1967 31.2139 41.6275C32.9476 41.3469 34.6521 40.9178 36.195 40.1731C37.5878 39.5008 39.2939 38.5532 40.4399 37.4918C41.5842 36.432 42.776 34.6974 43.6219 33.3415C44.3472 32.1788 43.9964 30.7524 42.8491 29.8861C41.5746 28.9238 39.6834 28.924 38.4092 29.8865L34.7949 32.6169C33.3941 33.675 31.8639 34.6491 30.0411 34.9398C29.822 34.9748 29.5923 35.0066 29.3527 35.0344M29.3527 35.0344C29.2806 35.0427 29.2075 35.0507 29.1336 35.0583M29.3527 35.0344C29.6443 34.9719 29.9339 34.7921 30.2055 34.555C31.4919 33.4322 31.5733 31.54 30.4571 30.2863C30.1981 29.9954 29.8951 29.7528 29.5581 29.5518C23.9635 26.2149 15.2588 28.7564 10 32.4858M29.3527 35.0344C29.2797 35.05 29.2066 35.0583 29.1336 35.0583M29.1336 35.0583C28.0869 35.1658 26.8623 35.1936 25.5035 35.0653"/>
<rect stroke-width="3" stroke="black" rx="3" height="16" width="6" y="28" x="4"/>
</svg>