<svg width="72" height="72" viewBox="0 0 72 72" fill="none" xmlns="http://www.w3.org/2000/svg">
<path opacity="0.5" d="M11.5336 11.5336C8.15547 14.9117 8.15547 20.3887 11.5336 23.7668L16.2968 28.53C16.3326 28.4886 17.9607 30.0389 18 29.9997L30 17.9997C30.0392 17.9605 28.4887 16.3324 28.53 16.2968L23.7668 11.5336C20.3887 8.15547 14.9117 8.15547 11.5336 11.5336Z" fill="#541010"/>
<path opacity="0.5" d="M15.3996 45.9216C15.8824 44.6928 17.615 44.6928 18.0978 45.9216L18.5686 47.1196C18.716 47.4948 19.0119 47.7917 19.3856 47.9397L20.5793 48.4122C21.8035 48.8968 21.8035 50.6358 20.5793 51.1204L19.3856 51.5929C19.0119 51.7408 18.716 52.0378 18.5686 52.4129L18.0978 53.611C17.615 54.8397 15.8824 54.8397 15.3996 53.611L14.9288 52.4129C14.7814 52.0378 14.4856 51.7408 14.1118 51.5929L12.9182 51.1204C11.6939 50.6358 11.6939 48.8968 12.9182 48.4122L14.1118 47.9397C14.4856 47.7917 14.7814 47.4948 14.9288 47.1196L15.3996 45.9216Z" fill="#541010"/>
<path opacity="0.2" d="M59.9015 27.3884C60.3844 26.1596 62.117 26.1596 62.5998 27.3884L63.0705 28.5864C63.218 28.9616 63.5138 29.2585 63.8876 29.4065L65.0812 29.879C66.3054 30.3636 66.3054 32.1026 65.0812 32.5872L63.8876 33.0597C63.5138 33.2076 63.218 33.5046 63.0705 33.8797L62.5998 35.0778C62.117 36.3065 60.3844 36.3065 59.9015 35.0778L59.4308 33.8797C59.2834 33.5046 58.9875 33.2076 58.6137 33.0597L57.4201 32.5872C56.1959 32.1026 56.1959 30.3636 57.4201 29.879L58.6137 29.4065C58.9875 29.2585 59.2834 28.9616 59.4308 28.5864L59.9015 27.3884Z" fill="#541010"/>
<path opacity="0.7" d="M48.3001 6.92157C48.7829 5.69281 50.5155 5.69281 50.9983 6.92157L52.2895 10.2074C52.4369 10.5826 52.7328 10.8795 53.1065 11.0275L56.3803 12.3234C57.6045 12.808 57.6045 14.547 56.3803 15.0316L53.1065 16.3276C52.7328 16.4755 52.4369 16.7725 52.2895 17.1476L50.9984 20.4335C50.5155 21.6622 48.7829 21.6622 48.3001 20.4335L47.009 17.1476C46.8615 16.7725 46.5657 16.4755 46.1919 16.3276L42.9182 15.0316C41.6939 14.547 41.6939 12.808 42.9182 12.3234L46.1919 11.0275C46.5657 10.8795 46.8615 10.5826 47.009 10.2074L48.3001 6.92157Z" fill="#541010"/>
<path d="M31.7028 19.47C31.6672 19.5112 30.0384 17.9601 29.9993 17.9993L17.9993 29.9993C17.96 30.0385 19.511 31.6674 19.4696 31.7031L48.2325 60.466C51.6106 63.8441 57.0876 63.8441 60.4657 60.466C63.8438 57.0879 63.8438 51.6109 60.4657 48.2328L31.7028 19.47Z" fill="#541010"/>
</svg>