<svg width="72" height="72" viewBox="0 0 72 72" fill="none" xmlns="http://www.w3.org/2000/svg">
<path d="M25.2669 61.8544C30.5337 64.6184 33.1672 66.0003 36 66.0003V36.0003L7.91405 21.2183C7.8727 21.2847 7.83209 21.3518 7.79219 21.4196C6 24.4631 6 28.2503 6 35.8249V36.1758C6 43.7503 6 47.5376 7.79219 50.5811C9.58438 53.6246 12.8119 55.3184 19.2669 58.7058L25.2669 61.8544Z" fill="#541010"/>
<path opacity="0.7" d="M52.7322 13.2946L46.7322 10.1459C41.4653 7.38197 38.8319 6 35.999 6C33.1662 6 30.5328 7.38197 25.2659 10.1459L19.2659 13.2946C12.9546 16.6066 9.72873 18.2994 7.91309 21.2179L35.999 36L64.085 21.2179C62.2693 18.2994 59.0434 16.6066 52.7322 13.2946Z" fill="#541010"/>
<path opacity="0.5" d="M64.2078 21.4196C64.1679 21.3518 64.1273 21.2847 64.086 21.2183L36 36.0003V66.0003C38.8328 66.0003 41.4663 64.6184 46.7331 61.8544L52.7331 58.7058C59.1881 55.3184 62.4156 53.6246 64.2078 50.5811C66 47.5376 66 43.7503 66 36.1758V35.8249C66 28.2503 66 24.4631 64.2078 21.4196Z" fill="#541010"/>
<path d="M18.97 13.4514C19.0685 13.3997 19.1678 13.3477 19.2678 13.2952L23.7484 10.9438L51.0507 25.9601L63.1219 19.9246C63.5349 20.3923 63.894 20.8853 64.2088 21.4198C64.6575 22.1819 64.9939 22.9906 65.246 23.8936L53.2509 29.8912V39.0006C53.2509 40.2432 52.2436 41.2506 51.0009 41.2506C49.7583 41.2506 48.7509 40.2432 48.7509 39.0006V32.1412L38.2509 37.3912V65.7127C37.4802 65.9046 36.7475 66.0006 36.0009 66.0006C35.2544 66.0006 34.5217 65.9046 33.7509 65.7127V37.3912L6.75586 23.8936C7.00802 22.9906 7.3444 22.1819 7.79313 21.4198C8.10791 20.8853 8.46697 20.3923 8.88002 19.9246L36.0009 33.485L46.1596 28.4057L18.97 13.4514Z" fill="#541010"/>
</svg>