<svg xmlns="http://www.w3.org/2000/svg" fill="none" viewBox="0 0 64 64" height="64" width="64">
<path stroke-linejoin="round" stroke-linecap="round" stroke-width="2" stroke="#0261FF" d="M32 16.4375V60.1042"/>
<path stroke-linejoin="round" stroke-linecap="round" stroke-width="2" stroke="#0261FF" d="M25.3333 21.7715C19.7413 19.8541 13.9052 18.7407 8 18.4648"/>
<path stroke-linejoin="round" stroke-linecap="round" stroke-width="2" stroke="#0261FF" d="M25.3333 33.1309C19.7413 31.2134 13.9052 30.1001 8 29.8242"/>
<path stroke-linejoin="round" stroke-linecap="round" stroke-width="2" stroke="#0261FF" d="M25.3333 44.4375C19.7413 42.5201 13.9052 41.4067 8 41.1309"/>
<path stroke-linejoin="round" stroke-linecap="round" stroke-width="2" stroke="#0261FF" d="M38.6667 33.1309C44.2589 31.2137 50.0949 30.1004 56.0001 29.8242"/>
<path stroke-linejoin="round" stroke-linecap="round" stroke-width="2" stroke="#0261FF" d="M38.6667 44.4375C44.2589 42.5204 50.0949 41.407 56.0001 41.1309"/>
<path stroke-linejoin="round" stroke-linecap="round" stroke-width="2" stroke="#0261FF" d="M42.6667 6.36617C42.6664 6.06982 42.7647 5.7818 42.9463 5.54759C43.1279 5.31338 43.3823 5.14633 43.6694 5.07284C46.3572 4.39011 49.0878 3.88854 51.8427 3.5715C52.0304 3.54959 52.2205 3.56779 52.4006 3.62491C52.5806 3.68203 52.7465 3.77676 52.8872 3.90283C53.0279 4.0289 53.1402 4.18342 53.2167 4.35617C53.2931 4.52891 53.332 4.71593 53.3307 4.90484V24.4382L47.9974 19.1048L42.6641 24.4382L42.6667 6.36617Z"/>
<path stroke-linejoin="round" stroke-linecap="round" stroke-width="2" stroke="#0261FF" d="M53.3334 7.46608C55.0347 7.30608 56.8001 7.19942 58.5787 7.13808C58.9361 7.12664 59.292 7.18716 59.6255 7.31605C59.9589 7.44493 60.263 7.63954 60.5198 7.88831C60.7765 8.13708 60.9806 8.43493 61.1199 8.76416C61.2592 9.09339 61.3309 9.44726 61.3308 9.80475V48.4714C61.3311 49.165 61.0611 49.8315 60.5782 50.3293C60.0953 50.8272 59.4374 51.1173 58.7441 51.1381C44.2427 51.5728 32.0001 55.5674 32.0001 60.4368C32.0001 55.5674 19.7574 51.5728 5.25342 51.1408C4.56013 51.1199 3.90223 50.8298 3.4193 50.332C2.93638 49.8341 2.66644 49.1677 2.66675 48.4741V9.81275C2.66657 9.45526 2.73826 9.10139 2.87758 8.77216C3.0169 8.44293 3.22099 8.14508 3.47772 7.89631C3.73445 7.64754 4.03859 7.45293 4.37203 7.32405C4.70548 7.19516 5.06144 7.13464 5.41875 7.14608C19.8481 7.60208 32.0001 11.5861 32.0001 16.4368C32.0001 14.5408 33.8667 12.7781 36.9787 11.3061"/>
</svg>