<svg xmlns="http://www.w3.org/2000/svg" fill="none" viewBox="0 0 65 64" height="64" width="65">
<g clip-path="url(#clip0_1745_99)">
<path stroke-linejoin="round" stroke-linecap="round" stroke-width="2" stroke="#0261FF" d="M2 43.9994C2 44.7066 2.28095 45.3849 2.78105 45.885C3.28115 46.3851 3.95942 46.666 4.66667 46.666H10V57.3327L20.6667 46.666H60.6667C61.3739 46.666 62.0522 46.3851 62.5523 45.885C63.0524 45.3849 63.3333 44.7066 63.3333 43.9994V9.33268C63.3333 8.62544 63.0524 7.94716 62.5523 7.44706C62.0522 6.94697 61.3739 6.66602 60.6667 6.66602H4.66667C3.95942 6.66602 3.28115 6.94697 2.78105 7.44706C2.28095 7.94716 2 8.62544 2 9.33268V43.9994Z"/>
<path stroke-width="2" stroke="#0261FF" d="M20.0002 27.3333C19.8234 27.3333 19.6538 27.2631 19.5288 27.1381C19.4037 27.013 19.3335 26.8435 19.3335 26.6667C19.3335 26.4899 19.4037 26.3203 19.5288 26.1953C19.6538 26.0702 19.8234 26 20.0002 26"/>
<path stroke-width="2" stroke="#0261FF" d="M20 27.3333C20.1768 27.3333 20.3464 27.2631 20.4714 27.1381C20.5964 27.013 20.6667 26.8435 20.6667 26.6667C20.6667 26.4899 20.5964 26.3203 20.4714 26.1953C20.3464 26.0702 20.1768 26 20 26"/>
<path stroke-width="2" stroke="#0261FF" d="M32.6667 27.3333C32.4899 27.3333 32.3203 27.2631 32.1953 27.1381C32.0702 27.013 32 26.8435 32 26.6667C32 26.4899 32.0702 26.3203 32.1953 26.1953C32.3203 26.0702 32.4899 26 32.6667 26"/>
<path stroke-width="2" stroke="#0261FF" d="M32.6667 27.3333C32.8436 27.3333 33.0131 27.2631 33.1382 27.1381C33.2632 27.013 33.3334 26.8435 33.3334 26.6667C33.3334 26.4899 33.2632 26.3203 33.1382 26.1953C33.0131 26.0702 32.8436 26 32.6667 26"/>
<path stroke-width="2" stroke="#0261FF" d="M45.3334 27.3333C45.1566 27.3333 44.987 27.2631 44.862 27.1381C44.737 27.013 44.6667 26.8435 44.6667 26.6667C44.6667 26.4899 44.737 26.3203 44.862 26.1953C44.987 26.0702 45.1566 26 45.3334 26"/>
<path stroke-width="2" stroke="#0261FF" d="M45.3335 27.3333C45.5103 27.3333 45.6799 27.2631 45.8049 27.1381C45.9299 27.013 46.0002 26.8435 46.0002 26.6667C46.0002 26.4899 45.9299 26.3203 45.8049 26.1953C45.6799 26.0702 45.5103 26 45.3335 26"/>
</g>
<defs>
<clipPath id="clip0_1745_99">
<rect transform="translate(0.666748)" fill="white" height="64" width="64"/>
</clipPath>
</defs>
</svg>