<svg width="1615" height="227" viewBox="0 0 1615 227" fill="none" xmlns="http://www.w3.org/2000/svg">
<path d="M0.173366 222.456V4.52353H82.6764C124.395 4.52353 155.528 32.8548 155.528 74.8846C155.528 116.292 123.15 146.18 82.6764 146.18H41.5805V222.456H0.173366ZM41.5805 110.688H78.3177C99.177 110.688 113.187 96.0552 113.187 74.8846C113.187 54.0254 99.177 40.0154 78.3177 40.0154H41.5805V110.688ZM189.587 222.456V4.52353H323.149V40.3267H230.995V94.4985H309.762V129.99H230.995V186.653H326.262V222.456H189.587ZM364.104 222.456V4.52353H445.673C490.193 4.52353 520.704 32.8548 520.704 73.9506C520.704 104.15 502.958 127.188 479.919 137.462L527.864 222.456H481.476L440.691 144.623H405.511V222.456H364.104ZM405.511 109.131H442.559C463.107 109.131 478.363 96.9892 478.363 73.9506C478.363 54.3367 464.975 40.0154 441.937 40.0154H405.511V109.131ZM663.865 226.503C596.929 226.503 549.607 178.247 549.607 113.49C549.607 49.3554 596.929 0.476211 663.554 0.476211C718.66 0.476211 757.888 33.4774 769.718 77.3753H724.264C715.547 55.582 693.753 40.0154 663.554 40.0154C620.902 40.0154 592.57 71.46 592.57 113.49C592.57 156.142 621.213 187.898 663.865 187.898C699.357 187.898 725.821 167.039 728.934 139.33H659.818V105.084H775.011C776.879 182.294 729.245 226.503 663.865 226.503ZM916.222 226.503C850.22 226.503 801.652 178.247 801.652 113.49C801.652 49.3554 850.531 0.476211 916.533 0.476211C982.536 0.476211 1031.41 49.978 1031.41 113.49C1031.41 177.624 982.224 226.503 916.222 226.503ZM916.533 186.964C958.252 186.964 988.14 155.831 988.14 113.49C988.14 71.7713 958.252 40.0154 916.533 40.0154C874.504 40.0154 844.616 71.7713 844.616 113.49C844.616 155.831 874.504 186.964 916.533 186.964ZM1069.47 222.456V4.52353H1110.87V185.719H1198.98V222.456H1069.47ZM1312.53 226.503C1259.29 226.503 1226.29 192.257 1226.29 141.198V4.52353H1267.7V140.887C1267.7 169.841 1283.26 187.587 1312.53 187.587C1342.1 187.587 1357.67 169.841 1357.67 140.576V4.52353H1398.77V140.887C1398.77 191.946 1365.45 226.503 1312.53 226.503ZM1424.08 222.456L1492.88 110.999L1427.5 4.52353H1474.51L1518.41 77.9979H1520.28L1564.49 4.52353H1611.5L1545.81 110.999L1614.61 222.456H1566.67L1519.97 143.689H1518.1L1471.71 222.456H1424.08Z" fill="black"/>
</svg>